<svg width="166" height="24" viewBox="0 0 166 24" fill="none" xmlns="http://www.w3.org/2000/svg">
<path d="M0.84 23L10.41 0.349998H10.59L20.16 23H16.53L9.57 5.27L11.82 3.8L3.96 23H0.84ZM6.63 14.84H14.43L15.51 17.54H5.7L6.63 14.84ZM24.0959 1.25H27.2159V19.97H38.1359V23H24.0959V1.25ZM45.6659 15.23C45.6659 16.15 45.8859 16.99 46.3259 17.75C46.7859 18.49 47.4059 19.08 48.1859 19.52C48.9659 19.96 49.8259 20.18 50.7659 20.18C51.7659 20.18 52.6559 19.96 53.4359 19.52C54.2159 19.08 54.8259 18.49 55.2659 17.75C55.7259 16.99 55.9559 16.15 55.9559 15.23V1.25H59.0459V15.32C59.0459 16.9 58.6759 18.29 57.9359 19.49C57.1959 20.67 56.1959 21.59 54.9359 22.25C53.6959 22.91 52.3059 23.24 50.7659 23.24C49.2259 23.24 47.8259 22.91 46.5659 22.25C45.3259 21.59 44.3359 20.67 43.5959 19.49C42.8759 18.29 42.5159 16.9 42.5159 15.32V1.25H45.6659V15.23ZM64.9064 23V0.53H64.9364L76.4564 16.88L75.1064 16.61L86.5964 0.53H86.6564V23H83.5364V7.64L83.7164 9.23L75.6764 20.66H75.6164L67.3964 9.23L67.9364 7.76V23H64.9064ZM90.547 23L100.117 0.349998H100.297L109.867 23H106.237L99.277 5.27L101.527 3.8L93.667 23H90.547ZM96.337 14.84H104.137L105.217 17.54H95.407L96.337 14.84ZM132.733 23.75L115.963 7.01L116.893 7.31L116.953 23H113.803V0.559999H113.923L130.483 17.3L129.763 17.12L129.703 1.25H132.823V23.75H132.733ZM138.998 1.25H142.118V23H138.998V1.25ZM146.035 23L155.605 0.349998H155.785L165.355 23H161.725L154.765 5.27L157.015 3.8L149.155 23H146.035ZM151.825 14.84H159.625L160.705 17.54H150.895L151.825 14.84Z" fill="#0065E8"/>
</svg>
